<svg version="1.1" id="Layer_1" xmlns="http://www.w3.org/2000/svg" xmlns:xlink="http://www.w3.org/1999/xlink" x="0px" y="0px"
	 width="100%" viewBox="0 0 1024 1024" enable-background="new 0 0 1024 1024" xml:space="preserve">
<path fill="#00C9A7" opacity="1.000000" stroke="#00C9A7" stroke-width="12" 
	d="
M882.389465,558.230103 
	C879.367310,582.836304 873.557495,606.324280 865.714844,629.347961 
	C849.485229,676.993408 824.352417,719.380981 790.472168,756.550171 
	C738.910645,813.117004 676.963928,852.655762 602.066406,870.733948 
	C580.223633,876.006165 558.092041,879.072815 535.615173,880.514404 
	C462.559479,885.199829 394.530579,868.136536 330.951935,833.021118 
	C275.623077,802.461914 231.609344,759.585449 197.729843,706.185913 
	C172.634827,666.632080 156.047272,623.766235 146.977692,577.954834 
	C141.563095,550.605225 139.724487,522.872192 140.793930,495.041168 
	C143.388229,427.527100 163.042480,365.057678 199.426758,308.335297 
	C247.511185,233.372635 314.338593,182.045715 399.320343,154.865173 
	C424.682220,146.753448 450.710876,141.202560 477.246857,138.874985 
	C503.446899,136.576889 529.681091,136.449326 555.928589,139.494766 
	C614.791260,146.324493 669.325867,165.158829 718.654968,198.083603 
	C776.478271,236.677856 820.723145,287.227844 850.554138,350.227448 
	C865.310730,381.391632 875.362000,414.008850 881.127808,447.935059 
	C885.774963,475.278809 886.120300,502.919586 885.115662,530.537170 
	C884.785645,539.610291 884.370483,548.807678 882.389465,558.230103 
M459.341797,791.657715 
	C453.634094,813.975342 447.926361,836.292969 442.217987,858.613220 
	C601.975403,896.726135 805.157104,801.772217 858.820923,599.077637 
	C885.092590,499.846527 871.281799,404.757233 815.422546,318.167694 
	C753.513184,222.199432 664.793701,166.163437 550.777649,153.904800 
	C360.166290,133.410950 165.884567,269.732880 155.895126,497.917938 
	C148.036621,677.426636 281.825134,826.692078 436.118378,856.943359 
	C437.305847,847.582214 438.099304,838.156555 439.844849,828.910645 
	C440.711487,824.320007 439.725769,821.011536 437.145508,817.442322 
	C433.146301,811.910339 429.778778,805.958923 426.660583,799.867493 
	C407.624176,762.679504 394.192200,723.818420 390.443604,681.899292 
	C388.511108,660.289185 389.621552,639.086731 396.111542,618.272461 
	C401.161011,602.078186 407.607391,586.363342 412.305878,570.043457 
	C420.413757,541.881287 419.017914,514.905518 403.442200,489.340363 
	C398.768372,481.668945 394.846924,473.542969 390.315308,465.780212 
	C380.789185,449.461731 380.710999,433.040161 389.133087,416.309052 
	C398.226166,398.245056 412.033630,384.117706 426.838165,370.805786 
	C427.305115,370.385925 427.996338,370.112854 428.536163,370.867828 
	C428.479218,372.522583 427.228729,373.489105 426.364532,374.692993 
	C417.626953,386.865021 408.665588,398.882446 401.697418,412.227661 
	C393.587769,427.759064 393.014374,443.409546 400.821503,459.164581 
	C405.183716,467.967621 409.900818,476.594025 414.335938,485.361786 
	C423.980774,504.428802 430.612244,524.357971 430.293030,546.001038 
	C430.020020,564.510864 424.893707,582.082642 418.755646,599.348877 
	C406.560760,633.652832 402.143097,668.643860 408.419861,704.769836 
	C413.520477,734.126404 420.431488,763.004028 430.541595,791.055115 
	C433.721039,799.876587 437.130615,808.635620 441.712494,817.813416 
	C447.389038,789.542236 454.409454,762.574158 465.349182,736.734009 
	C478.726227,705.136902 499.369446,666.218689 504.898956,662.972595 
	C496.634186,684.228455 488.329163,705.223816 480.305481,726.326111 
	C472.265259,747.471985 465.480591,769.038696 459.341797,791.657715 
z"/>
<path fill="#00C9A7" opacity="1.000000" stroke="none" 
	d="
M588.151611,682.275757 
	C594.613770,661.643738 596.373169,641.173889 590.539673,620.512024 
	C585.414917,602.360046 574.908997,587.179260 563.456055,572.542786 
	C558.225708,565.858521 553.197205,559.011475 548.220154,552.134766 
	C535.909790,535.126038 534.747620,516.904541 542.444397,497.729950 
	C550.227722,478.339569 560.414856,460.206940 571.294312,442.440674 
	C578.892944,430.032135 585.171875,417.027893 589.621033,403.159485 
	C589.807861,402.577118 589.755737,401.797394 591.322388,401.727600 
	C591.737732,408.207367 590.073059,414.382172 588.669495,420.553070 
	C584.205994,440.177124 575.238525,458.081787 567.278748,476.376495 
	C564.426453,482.932343 561.901550,489.635193 559.366943,496.323914 
	C551.171631,517.950378 555.342834,537.420227 569.596863,555.202820 
	C575.845520,562.998352 581.978821,570.898010 587.876099,578.961243 
	C599.055237,594.246033 606.675720,611.132629 609.216064,630.005798 
	C612.048767,651.051208 608.705017,671.414001 601.511108,691.236084 
	C593.096802,714.420959 580.058105,735.118591 567.073669,755.899475 
	C550.887329,781.804871 536.873596,808.815674 528.127625,838.276428 
	C527.562256,840.180786 527.007874,842.088928 526.400513,843.980042 
	C526.262573,844.409485 525.924866,844.774841 525.238281,845.103271 
	C524.859070,839.111938 526.298706,833.307434 527.230225,827.467224 
	C532.355774,795.331543 546.648804,766.891418 562.421875,738.934631 
	C572.563599,720.959045 581.885132,702.502075 588.151611,682.275757 
z"/>
<path fill="#00C9A7" opacity="1.000000" stroke="none" 
	d="
M636.465698,427.635834 
	C639.586365,409.900970 644.293518,392.734222 643.515686,375.004089 
	C642.818115,359.104248 638.189026,348.419067 621.746094,343.660889 
	C615.840454,341.951935 609.826965,340.683563 603.651733,340.365784 
	C603.057617,340.335236 602.474426,340.093536 601.890930,339.471436 
	C609.692200,336.693787 617.761597,337.508636 625.710632,338.032806 
	C630.310913,338.336151 634.816345,339.749542 639.124390,341.673889 
	C651.826721,347.347900 658.361938,356.873260 658.389954,370.956970 
	C658.431030,391.564178 653.791992,411.505829 649.843933,431.511047 
	C645.539429,453.322601 639.868896,474.899048 637.663818,497.061676 
	C636.745483,506.291870 637.027649,515.736389 637.713623,525.013245 
	C639.672607,551.509521 638.382935,577.523926 628.397156,602.546814 
	C628.027283,603.473572 627.898926,604.498596 626.354248,604.923889 
	C625.547241,602.019104 626.536194,599.159302 626.904480,596.480225 
	C629.782227,575.548035 629.215698,554.692627 625.853088,533.900635 
	C622.053406,510.405823 624.242432,487.221252 628.976624,464.130310 
	C631.442139,452.105164 633.908203,440.080109 636.465698,427.635834 
z"/>
<path fill="#00C9A7" opacity="1.000000" stroke="none" 
	d="
M390.609711,369.305115 
	C395.939148,349.872437 408.524200,338.903656 427.710327,334.685913 
	C438.265503,332.365540 448.646637,329.108582 457.945831,323.377441 
	C468.363068,316.957123 474.749359,307.909271 474.827637,295.196136 
	C474.840057,293.177185 474.745209,291.271301 472.803986,289.883514 
	C461.818024,282.029633 456.176453,270.516174 452.160065,258.229614 
	C445.982819,239.332748 444.452057,219.870819 446.849182,200.133408 
	C447.054596,198.442001 447.211548,196.567825 448.973755,194.552475 
	C450.485413,204.567780 451.816010,214.034714 453.359375,223.466797 
	C456.144501,240.487762 460.394470,257.018341 470.870331,271.205017 
	C476.482239,278.804810 483.652283,284.087006 493.175690,286.053375 
	C499.789673,287.419006 505.727722,285.632812 511.513702,283.046509 
	C523.318420,277.769806 531.370422,268.177277 539.147339,258.337067 
	C539.851746,257.445709 540.235779,256.257446 541.733765,256.066620 
	C541.844177,256.509033 542.181641,257.056305 542.033447,257.383911 
	C536.828247,268.888367 530.055420,279.313263 520.255737,287.444183 
	C512.993713,293.469574 504.675140,297.115143 495.013214,296.347992 
	C490.089722,295.957092 488.200562,297.054321 486.585419,302.616302 
	C481.294708,320.835510 469.218689,333.373535 450.831116,339.175964 
	C442.267548,341.878326 433.424469,343.460999 424.529633,344.595825 
	C409.603271,346.500153 400.768829,356.147247 393.758453,368.279327 
	C392.974060,369.636749 392.844330,371.562195 390.946899,372.128387 
	C389.336548,371.504639 390.438324,370.495728 390.609711,369.305115 
z"/>
<path fill="#00C9A7" opacity="1.000000" stroke="none" 
	d="
M573.708862,322.308044 
	C579.558777,326.732544 586.192261,328.804626 593.069580,331.444885 
	C589.929382,333.362701 587.590820,331.707092 585.347717,331.212616 
	C560.666016,325.771484 547.886230,308.486298 544.592712,283.777191 
	C542.242493,266.144775 547.734619,249.605576 550.996155,232.746109 
	C552.059692,227.248581 553.607300,221.844696 555.463013,216.420334 
	C556.535706,223.636368 556.462830,230.830978 555.882263,238.080292 
	C554.429138,256.225342 551.216675,274.363708 555.292603,292.572144 
	C557.959656,304.486603 563.579834,314.588440 573.708862,322.308044 
z"/>
</svg>