<?xml version="1.0" encoding="utf-8"?>
<svg xmlns="http://www.w3.org/2000/svg" viewBox="-44.1623 -54.2789 1650.639 1650.5205" width="1650.639px" height="1650.5205px" xmlns:bx="https://boxy-svg.com"><g id="object-2" transform="matrix(1, 0, 0, 1, 5.684341886080802e-14, 5.684341886080802e-14)"><title>Logo</title><path d="M 705.766 241.602 C 703.338 250.892 701.66 270.132 702.021 284.342 C 702.838 316.382 709.418 340.732 722.821 361.342 C 727.744 368.902 737.892 379.582 743.788 383.382 C 746.489 385.132 748.685 387.292 748.668 388.202 C 748.617 390.812 741.158 406.532 737.406 411.932 C 725.412 429.182 715.6 434.802 686.168 441.322 C 661.014 446.892 651.262 451.132 641.398 460.822 C 634.097 468.002 629.044 476.552 624.762 489.002 C 620.234 502.132 620.836 502.972 626.627 491.632 C 632.295 480.532 640.742 470.572 648.893 465.372 C 656.39 460.592 665.838 457.732 682.031 455.332 C 712.668 450.802 724.128 446.502 735.134 435.412 C 743.47 427.002 749.31 416.962 754.059 402.872 C 756.093 396.832 758.246 391.592 758.843 391.232 C 759.441 390.862 763.2 390.512 767.197 390.452 C 783.67 390.202 800.279 380.982 812.342 365.392 C 816.446 360.082 825.091 346.372 825.103 345.142 C 825.107 344.822 821.813 347.952 817.786 352.092 C 807.558 362.622 796.659 371.042 787.809 375.252 C 780.983 378.512 779.474 378.842 771.753 378.842 C 764.073 378.842 762.55 378.512 756.318 375.432 C 744.223 369.442 730.415 353.252 721.707 334.842 C 712.32 315.002 706.649 284.612 706.641 254.102 C 706.639 245.982 706.573 239.352 706.495 239.352 C 706.418 239.352 706.089 240.362 705.766 241.602 M 850.02 283.092 C 849.36 286.812 846.677 299.412 844.057 311.112 C 837.047 342.402 835.714 352.192 836.123 369.342 C 836.518 385.882 838.109 392.552 844.838 405.842 C 850.541 417.122 862.031 428.772 872.239 433.642 C 879.522 437.112 887.601 439.562 895.67 440.732 C 899.175 441.242 899.359 441.172 897.175 440.212 C 874.555 430.202 865.934 422.392 857.015 403.842 C 847.696 384.472 846.436 368.552 850.27 318.682 C 852.855 285.062 853.211 276.342 851.997 276.342 C 851.569 276.342 850.679 279.382 850.02 283.092 M 913.543 448.262 C 913.812 448.702 916.473 449.352 919.455 449.702 C 926.548 450.542 941.716 455.542 949.377 459.582 C 957.769 464.002 967.07 473.652 969.579 480.542 C 976.378 499.202 974.649 517.872 960.42 579.442 C 948.91 629.252 944.368 654.172 941.752 681.852 C 940.242 697.824 940.845 712.254 944.027 736.349 C 946.054 751.698 946.444 758.682 946.316 777.349 C 946.231 789.724 945.761 805.699 945.271 812.849 L 944.38 825.849 L 949.579 810.349 C 959.151 781.816 959.408 779.549 959.609 722.063 C 959.724 688.952 960.182 669.692 960.977 664.562 C 961.634 660.322 967.588 630.912 974.207 599.222 C 987.898 533.652 990.393 519.162 990.544 504.282 C 990.728 486.262 987.857 476.212 979.915 467.092 C 972.232 458.262 960.456 452.722 943.527 449.962 C 933.01 448.242 912.839 447.102 913.543 448.262 M 658.881 508.602 C 639.913 527.832 629.024 542.032 620.552 558.612 C 612.091 575.172 609.263 586.142 609.847 600.132 C 610.367 612.402 611.819 616.262 622.742 634.412 C 638.565 660.692 646.142 678.442 652.109 703.284 C 656.04 719.629 656.708 725.91 655.927 739.32 C 655.001 755.273 653.474 761.162 639.574 802.098 C 620.866 857.196 616.004 878.889 614.836 912.503 C 614.058 934.737 614.673 943.514 618.562 966.055 C 625.301 1005.06 635.668 1039.22 654.622 1084.85 C 664.109 1107.67 680.701 1141.31 681.902 1140.12 C 682.064 1139.96 680.698 1135.43 678.881 1130.05 C 677.053 1124.66 671.659 1106.67 666.891 1090.06 C 633.391 973.402 628.053 923.043 642.58 860.836 C 645.972 846.342 650.472 830.962 658.552 806.349 C 670.261 770.656 671.918 763.827 672.879 747.349 C 674.549 718.617 664.352 683.592 640.05 634.562 C 633.646 621.662 627.784 608.582 627.014 605.512 C 625.176 598.162 625.359 585.592 627.439 577.412 C 631.276 562.302 643.197 539.742 662.466 511.102 C 669.042 501.332 674.31 493.352 674.17 493.352 C 674.04 493.352 667.163 500.212 658.881 508.602 M 897.724 541.572 C 893.296 557.002 878.667 587.292 857.27 625.352 C 822.598 687.012 817.131 704.306 824.48 729.076 C 827.995 740.922 834.65 752.237 851.99 775.849 C 880.682 814.916 888.149 827.467 894.077 846.59 C 898.554 861.032 900.093 871.892 899.924 887.849 C 899.615 917.056 893.247 942.847 877.887 977.111 C 871.587 991.166 864.993 1003.37 849.924 1028.85 C 822.001 1076.07 807.795 1112.49 801.357 1153.35 C 799.406 1165.73 797.348 1187.2 798.338 1184.85 C 798.569 1184.3 800.697 1176.87 803.067 1168.35 C 816.115 1121.42 835.318 1079.86 863.938 1036.62 C 877.961 1015.43 887.981 997.234 897.685 975.349 C 929.076 904.548 927.706 850.291 893.204 797.921 C 889.814 792.777 880.175 779.631 871.784 768.709 C 850.908 741.536 846.474 733.699 842.845 717.563 C 839.515 702.76 844.986 683.922 864.693 642.352 C 878.81 612.572 888.298 588.702 892.815 571.632 C 895.284 562.292 900.423 536.202 899.897 535.672 C 899.692 535.462 898.714 538.122 897.724 541.572 M 763.669 928.588 C 752.472 946.749 747.525 956.005 738.409 975.849 C 717.87 1020.56 708.031 1047.98 692.826 1102.87 C 680.471 1147.45 669.385 1203.29 666.417 1235.85 C 665.186 1249.28 664.688 1293.03 665.604 1306.85 C 666.283 1317.1 666.552 1316.19 668.851 1295.85 C 670.263 1283.39 676.388 1242.89 679.605 1224.85 C 681.668 1213.23 687.592 1186.15 694.144 1158.35 C 702.907 1121.18 724.045 1044.53 733.161 1016.85 C 743.004 986.969 763.543 933.973 770.696 920.002 C 774.946 911.699 771.445 915.978 763.669 928.588" stroke="none" fill-rule="evenodd" style="box-sizing: border-box; stroke-width: 5px; stroke-linecap: round; fill: rgb(0, 201, 167); pointer-events: none;" id="object-1"/><path d="M 546 201 m -590.744 0 a 590.744 576.207 0 1 0 1181.488 0 a 590.744 576.207 0 1 0 -1181.488 0 Z M 546 201 m -567.116 0 a 567.116 553.16 0 0 1 1134.232 0 a 567.116 553.16 0 0 1 -1134.232 0 Z" bx:shape="ring 546 201 567.116 553.16 590.744 576.207 1@e0563d4e" style="fill: rgb(0, 201, 167); stroke: rgb(0, 201, 167); stroke-width: 12px; pointer-events: none;" transform="matrix(-0.71053491, 0.70366196, -0.70362776, -0.71056877, 1310.53847886, 529.60619616)" id="object-0"/></g></svg>