<svg xmlns="http://www.w3.org/2000/svg" width="800" height="800" style="position:relative;margin:auto;user-select:none;cursor:default;zoom:1" viewBox="0 0 800 800">
  <path d="M342.72 33.821c-1.58 6.29-2.594 19.32-2.254 28.942.766 21.69 5.382 38.177 14.594 52.13 3.383 5.126 10.325 12.35 14.342 14.928 1.84 1.181 3.341 2.65 3.336 3.262-.017 1.771-4.964 12.413-7.468 16.066-8.008 11.679-14.614 15.49-34.502 19.902-16.995 3.77-23.566 6.646-30.181 13.206-4.898 4.856-8.265 10.651-11.081 19.074-2.974 8.89-2.563 9.464 1.282 1.785 3.763-7.517 9.416-14.261 14.906-17.784 5.043-3.236 11.417-5.172 22.366-6.793 20.717-3.068 28.448-5.98 35.826-13.492 5.59-5.689 9.477-12.487 12.6-22.03 1.336-4.087 2.76-7.635 3.162-7.884.402-.248 2.945-.485 5.65-.525 11.153-.168 22.338-6.412 30.403-16.972 2.743-3.592 8.507-12.878 8.507-13.706 0-.218-2.21 1.9-4.91 4.706-6.855 7.124-14.179 12.826-20.143 15.682-4.6 2.203-5.62 2.431-10.848 2.431-5.2 0-6.234-.229-10.474-2.315-8.229-4.051-17.685-15.013-23.703-27.477-6.487-13.436-10.528-34.017-10.735-54.675-.055-5.492-.144-9.987-.197-9.987-.052 0-.268.686-.479 1.526m97.95 28.096c-.423 2.514-2.156 11.05-3.853 18.969-4.54 21.185-5.377 27.815-4.987 39.43.377 11.199 1.499 15.715 6.142 24.715 3.937 7.631 11.793 15.521 18.738 18.819a56.4 56.4 0 0 0 15.911 4.8c2.377.344 2.502.3 1.016-.354-15.382-6.776-21.271-12.06-27.433-24.62-6.437-13.12-7.396-23.898-5.13-57.662 1.528-22.764 1.711-28.667.889-28.667-.29 0-.872 2.056-1.294 4.57m44.104 111.833c.185.299 1.991.738 4.013.976 4.808.565 15.111 3.956 20.325 6.69 5.712 2.994 12.073 9.526 13.818 14.188 4.726 12.633 3.68 25.275-5.548 66.968-7.464 33.727-10.374 50.598-11.963 69.339-.916 10.816-.413 20.587 1.901 36.902 1.474 10.392 1.785 15.121 1.821 27.76.025 8.38-.188 19.196-.472 24.038l-.518 8.802 3.418-10.495c6.293-19.32 6.452-20.855 6.207-59.778-.14-22.417.042-35.46.547-38.934.416-2.872 4.253-22.782 8.525-44.243 8.837-44.394 10.43-54.208 10.434-64.282.006-12.204-2.005-19.006-7.443-25.184-5.26-5.977-13.27-9.73-24.752-11.598-7.132-1.16-20.797-1.934-20.313-1.15m-172.03 40.854c-12.721 13.022-19.995 22.635-25.623 33.863-5.62 11.21-7.462 18.64-6.972 28.117.429 8.304 1.44 10.92 8.957 23.207 10.888 17.793 16.13 29.811 20.34 46.634 2.77 11.067 3.262 15.32 2.824 24.4-.522 10.802-1.522 14.79-10.66 42.507-12.302 37.307-15.449 51.995-16.02 74.755-.378 15.055.093 20.998 2.878 36.26 4.818 26.41 12.066 49.543 25.201 80.436 6.571 15.454 18.033 38.227 18.836 37.425.108-.109-.843-3.179-2.112-6.823s-5.041-15.828-8.381-27.077c-23.453-78.986-27.403-113.084-17.975-155.204 2.197-9.814 5.146-20.228 10.45-36.893 7.693-24.168 8.77-28.792 9.31-39.95.943-19.454-6.191-43.166-22.973-76.365-4.419-8.74-8.477-17.593-9.018-19.672-1.296-4.975-1.251-13.49.1-19.026 2.496-10.23 10.419-25.509 23.282-44.901 4.385-6.61 7.898-12.019 7.808-12.019s-4.704 4.647-10.252 10.326m161.936 22.326c-2.896 10.447-12.6 30.96-26.837 56.726-23.068 41.752-26.656 53.461-21.516 70.233 2.458 8.021 7.04 15.682 18.937 31.67 19.685 26.452 24.824 34.95 28.965 47.899 3.126 9.778 4.24 17.132 4.231 27.936-.016 19.776-4.157 37.24-14.33 60.44-4.173 9.516-8.558 17.776-18.592 35.031-18.595 31.974-27.973 56.632-32.062 84.3-1.239 8.384-2.49 22.923-1.835 21.328.152-.372 1.544-5.4 3.093-11.172 8.524-31.775 21.251-59.915 40.344-89.197 9.355-14.347 16.019-26.665 22.445-41.483 20.787-47.94 19.5-84.677-4.208-120.137-2.33-3.483-8.942-12.384-14.696-19.78-14.316-18.398-17.37-23.705-19.933-34.63-2.353-10.024 1.227-22.777 14.296-50.928 9.361-20.165 15.628-36.32 18.573-47.886 1.61-6.319 4.917-23.986 4.558-24.345-.14-.14-.785 1.657-1.433 3.995M386.47 498.978c-7.462 12.296-10.75 18.564-16.792 32-13.61 30.275-20.091 48.838-30.024 86.006-8.069 30.186-15.208 67.992-17.004 90.04-.742 9.097-.79 38.72-.077 48.074.528 6.94.704 6.324 2.125-7.448.87-8.435 4.754-35.858 6.807-48.074 1.323-7.867 5.154-26.2 9.409-45.027 5.687-25.165 19.493-77.07 25.482-95.81 6.467-20.232 20.024-56.115 24.775-65.575 2.823-5.622.48-2.725-4.701 5.814" fill-rule="evenodd" fill="#00c9a7"/>
  <path d="M1.907 400.101a400 400 0 1 0 800 0 400 400 0 1 0-800 0m20.001 0a379.999 379.999 0 0 1 759.998 0 379.999 379.999 0 0 1-759.998 0" style="fill:#00c9a7;fill-rule:evenodd;transform-box:fill-box;transform-origin:50% 50%" transform="rotate(-.003 -2434.492 31382.944)"/>
</svg>
