<?xml version="1.0" encoding="utf-8"?>
<svg xmlns="http://www.w3.org/2000/svg" id="svgContent" version="1.1" width="800px" height="800px" style="position: relative; margin: auto; user-select: none; cursor: default; zoom: 1;" viewBox="0 0 800 800" xmlns:bx="https://boxy-svg.com">
  <g id="svgPath" style="" transform="matrix(0.677109, 0, 0, 0.677109, 53.156708, -68.594292)">
    <path d="M427.651,151.256 C425.319,160.545 423.821,179.789 424.323,194 C425.454,226.034 432.271,250.383 445.876,270.990 C450.873,278.560 461.125,289.230 467.058,293.037 C469.776,294.781 471.993,296.949 471.985,297.854 C471.960,300.470 464.654,316.187 460.955,321.582 C449.129,338.830 439.372,344.458 410,350.975 C384.900,356.544 375.196,360.790 365.426,370.478 C358.193,377.650 353.220,386.209 349.060,398.648 C344.668,411.778 345.276,412.626 350.954,401.285 C356.512,390.183 364.860,380.223 372.969,375.020 C380.417,370.241 389.830,367.382 406,364.987 C436.597,360.456 448.015,356.156 458.912,345.062 C467.166,336.660 472.908,326.620 477.519,312.525 C479.494,306.489 481.596,301.250 482.190,300.882 C482.784,300.515 486.540,300.166 490.536,300.106 C507.007,299.858 523.526,290.637 535.436,275.041 C539.488,269.736 548,256.021 548,254.798 C548,254.477 544.737,257.604 540.750,261.748 C530.625,272.270 519.808,280.691 511,284.909 C504.205,288.163 502.700,288.500 494.979,288.500 C487.299,288.500 485.772,288.162 479.510,285.080 C467.357,279.097 453.391,262.908 444.503,244.500 C434.922,224.657 428.954,194.261 428.648,163.752 C428.567,155.640 428.436,149.002 428.358,149.002 C428.281,149.001 427.962,150.015 427.651,151.256 M572.310,192.750 C571.687,196.463 569.127,209.069 566.621,220.765 C559.917,252.053 558.679,261.845 559.256,279 C559.812,295.538 561.469,302.208 568.327,315.500 C574.141,326.770 585.744,338.423 596,343.293 C603.317,346.767 611.420,349.212 619.500,350.382 C623.010,350.890 623.194,350.826 621,349.860 C598.282,339.853 589.585,332.049 580.485,313.500 C570.977,294.122 569.561,278.204 572.908,228.338 C575.165,194.718 575.435,186 574.221,186 C573.793,186 572.933,189.037 572.310,192.750 M637.447,357.914 C637.720,358.356 640.387,359.005 643.373,359.356 C650.474,360.191 665.691,365.199 673.391,369.236 C681.827,373.658 691.222,383.306 693.798,390.191 C700.779,408.848 699.233,427.519 685.605,489.094 C674.582,538.906 670.283,563.822 667.937,591.500 C666.584,607.475 667.327,621.905 670.745,646 C672.922,661.349 673.380,668.333 673.434,687 C673.470,699.375 673.156,715.350 672.736,722.500 L671.972,735.500 L677.020,720 C686.313,691.467 686.548,689.200 686.187,631.714 C685.979,598.608 686.249,579.344 686.994,574.214 C687.609,569.972 693.276,540.567 699.585,508.871 C712.636,443.307 714.989,428.812 714.995,413.934 C715.003,395.910 712.034,385.865 704.003,376.740 C696.233,367.913 684.403,362.371 667.447,359.612 C656.914,357.899 636.731,356.756 637.447,357.914 M383.378,418.250 C364.590,437.482 353.847,451.679 345.535,468.261 C337.235,484.819 334.515,495.791 335.238,509.787 C335.872,522.051 337.364,525.916 348.467,544.061 C364.548,570.340 372.289,588.089 378.508,612.935 C382.598,629.280 383.325,635.561 382.677,648.971 C381.907,664.924 380.430,670.813 366.933,711.749 C348.766,766.847 344.118,788.540 343.274,822.154 C342.716,844.388 343.412,853.165 347.525,875.706 C354.641,914.710 365.345,948.875 384.744,994.500 C394.449,1017.324 411.376,1050.957 412.562,1049.772 C412.722,1049.612 411.318,1045.078 409.443,1039.696 C407.568,1034.314 401.998,1016.319 397.065,999.706 C362.428,883.053 356.595,832.694 370.518,770.487 C373.763,755.993 378.119,740.613 385.953,716 C397.313,680.307 398.905,673.478 399.703,657 C401.094,628.268 390.558,593.247 365.773,544.216 C359.247,531.308 353.254,518.234 352.454,515.163 C350.540,507.815 350.607,495.240 352.602,487.064 C356.289,471.956 367.990,449.390 386.987,420.750 C393.463,410.988 398.652,403 398.519,403 C398.385,403 391.572,409.863 383.378,418.250 M622.539,451.223 C618.262,466.652 603.929,496.947 582.904,535 C548.834,596.663 543.536,613.957 551.127,638.727 C554.757,650.573 561.523,661.888 579.094,685.500 C608.167,724.567 615.757,737.118 621.872,756.241 C626.490,770.683 628.135,781.543 628.122,797.500 C628.098,826.707 621.982,852.498 606.957,886.762 C600.794,900.817 594.319,913.016 579.499,938.500 C552.037,985.722 538.187,1022.138 532.148,1063 C530.318,1075.383 528.470,1096.856 529.437,1094.500 C529.662,1093.950 531.718,1086.525 534.005,1078 C546.594,1031.072 565.391,989.513 593.589,946.266 C607.405,925.077 617.247,906.885 626.737,885 C657.437,814.199 655.537,759.942 620.523,707.572 C617.083,702.428 607.316,689.282 598.818,678.360 C577.676,651.187 573.166,643.350 569.379,627.214 C565.905,612.411 571.192,593.576 590.493,552 C604.319,522.219 613.574,498.358 617.924,481.278 C620.302,471.945 625.186,445.853 624.655,445.322 C624.448,445.115 623.496,447.770 622.539,451.223 M492.265,838.239 C481.245,856.400 476.388,865.656 467.466,885.500 C447.364,930.213 437.793,957.628 423.123,1012.521 C411.207,1057.103 400.663,1112.938 398.010,1145.500 C396.915,1158.935 396.845,1202.685 397.897,1216.500 C398.677,1226.748 398.936,1225.839 401.035,1205.500 C402.320,1193.043 408.056,1152.541 411.089,1134.500 C413.042,1122.882 418.700,1095.806 424.984,1068 C433.384,1030.835 453.773,954.178 462.619,926.500 C472.170,896.620 492.191,843.624 499.208,829.653 C503.377,821.350 499.917,825.629 492.265,838.239 " stroke="none" fill-rule="evenodd" fill="#00c9a7"/>
  </g>
  <path d="M 401.907 400.101 m -400 0 a 400 400 0 1 0 800 0 a 400 400 0 1 0 -800 0 Z M 401.907 400.101 m -379.999 0 a 379.999 380 0 0 1 759.998 0 a 379.999 380 0 0 1 -759.998 0 Z" bx:shape="ring 401.907 400.101 379.999 380 400 400 1@577f5e61" style="fill: rgb(0, 201, 167); fill-rule: evenodd; transform-box: fill-box; transform-origin: 50% 50%;" transform="matrix(1, -0.00006, 0.00006, 1, -1.882981, -0.146013)"/>
</svg>